<?xml version="1.0" encoding="UTF-8" standalone="no"?>
<svg
   xmlns:dc="http://purl.org/dc/elements/1.1/"
   xmlns:cc="http://creativecommons.org/ns#"
   xmlns:rdf="http://www.w3.org/1999/02/22-rdf-syntax-ns#"
   xmlns:svg="http://www.w3.org/2000/svg"
   xmlns="http://www.w3.org/2000/svg"
   xmlns:sodipodi="http://sodipodi.sourceforge.net/DTD/sodipodi-0.dtd"
   xmlns:inkscape="http://www.inkscape.org/namespaces/inkscape"
   width="20mm"
   height="10mm"
   viewBox="0 0 20 10"
   version="1.1"
   id="svg8"
   inkscape:version="1.0.2-2 (e86c870879, 2021-01-15)"
   sodipodi:docname="logo.svg">
  <defs
     id="defs2" />
  <sodipodi:namedview
     id="base"
     pagecolor="#ffffff"
     bordercolor="#666666"
     borderopacity="1.0"
     inkscape:pageopacity="0.0"
     inkscape:pageshadow="2"
     inkscape:zoom="11.2"
     inkscape:cx="46.54192"
     inkscape:cy="25.261976"
     inkscape:document-units="mm"
     inkscape:current-layer="layer1"
     inkscape:document-rotation="0"
     showgrid="false"
     inkscape:window-width="1920"
     inkscape:window-height="1017"
     inkscape:window-x="-8"
     inkscape:window-y="-8"
     inkscape:window-maximized="1" />
  <metadata
     id="metadata5">
    <rdf:RDF>
      <cc:Work
         rdf:about="">
        <dc:format>image/svg+xml</dc:format>
        <dc:type
           rdf:resource="http://purl.org/dc/dcmitype/StillImage" />
        <dc:title></dc:title>
      </cc:Work>
    </rdf:RDF>
  </metadata>
  <g
     inkscape:label="Vrstva 1"
     inkscape:groupmode="layer"
     id="layer1">
    <g
       id="g1035"
       transform="matrix(0.14285714,0,0,0.14285713,-3.6878856,-24.603069)">
      <ellipse
         style="fill:#8cc600;fill-opacity:1;stroke-width:0.137902;stroke-linejoin:round"
         id="path963-5"
         cx="101.71409"
         cy="206.62201"
         rx="23.51952"
         ry="24.461679" />
      <path
         style="fill:#000000;stroke-width:0.272649"
         d="m 90.94263,242.09144 c -1.88168,-0.1121 -4.5463,-0.3595 -5.92138,-0.54979 -3.659585,-0.50643 -9.595779,-1.86887 -13.111849,-3.00934 -6.466677,-2.09755 -13.664339,-5.57089 -19.224242,-9.27694 -5.654368,-3.76902 -12.382995,-9.7703 -16.112958,-14.37118 -1.071655,-1.32188 -2.011357,-2.41379 -2.088225,-2.42647 -0.07689,-0.0127 -0.779223,1.15273 -1.560793,2.58977 -0.78157,1.43706 -1.532802,2.77202 -1.66942,2.9666 -0.189961,0.27057 -0.797753,0.0429 -2.584176,-0.96807 -1.284682,-0.72701 -2.335787,-1.44274 -2.335787,-1.59049 0,-0.37584 1.418326,-3.01848 3.093227,-5.76335 l 1.414914,-2.31882 -1.124969,-1.77695 c -0.618733,-0.97733 -1.749749,-2.91125 -2.513375,-4.29762 l -1.388397,-2.52066 2.379712,-1.36994 c 1.308843,-0.75348 2.467332,-1.31184 2.574428,-1.2408 0.107086,0.071 0.816344,1.24982 1.576131,2.61952 0.759776,1.36968 1.54621,2.72624 1.74763,3.01456 0.346085,0.49539 0.413832,0.46434 1.232354,-0.56494 4.843622,-6.09071 11.720485,-12.2758 18.649062,-16.77301 3.361877,-2.18214 9.751391,-5.50981 13.201112,-6.87515 5.794844,-2.29351 12.234706,-3.96557 18.766731,-4.87266 4.70184,-0.65293 14.53178,-0.66015 19.32675,-0.0142 12.64152,1.70301 24.59076,6.36783 34.68649,13.54117 5.01299,3.56189 8.35213,6.51478 12.74974,11.27491 2.12562,2.30084 3.92011,4.18336 3.98777,4.18336 0.13386,0 2.73426,-4.64644 3.44816,-6.16122 0.24251,-0.51456 0.58211,-0.89513 0.75467,-0.84569 0.64235,0.18404 4.65609,2.50104 4.65609,2.6878 0,0.33484 -2.64868,5.21523 -3.98512,7.34286 -0.70308,1.11932 -1.27833,2.11016 -1.27833,2.20186 0,0.0917 0.58177,1.0921 1.29283,2.2231 1.35354,2.15291 4.23379,7.50712 4.23379,7.87036 0,0.22308 -4.73808,2.85676 -4.86779,2.70578 -0.0417,-0.0486 -0.75293,-1.35066 -1.58051,-2.8936 -1.93664,-3.61066 -2.59149,-4.68823 -2.79885,-4.6056 -0.0922,0.0367 -1.19076,1.27437 -2.44116,2.75026 -6.69873,7.90672 -15.76882,14.93195 -25.13299,19.4667 -11.88854,5.75724 -25.12602,8.41781 -38.05127,7.64786 z m -10.013935,-8.13179 c -6.94581,-3.95842 -12.318586,-10.93347 -14.421552,-18.72238 -0.88711,-3.28569 -1.313066,-7.42277 -1.08677,-10.55532 0.22212,-3.07469 1.088451,-6.91072 2.21902,-9.82557 1.894573,-4.88461 6.157598,-10.40703 10.364047,-13.42581 1.133885,-0.81375 1.923405,-1.47954 1.754465,-1.47954 -0.64004,0 -4.731146,1.19565 -7.895273,2.30744 -4.084821,1.43529 -9.046775,3.7346 -12.500689,5.79266 -3.493062,2.08139 -7.590537,5.03491 -10.655704,7.68079 -2.729358,2.35601 -7.598713,7.42859 -9.593787,9.99418 l -1.262999,1.62419 1.279133,1.62418 c 2.156608,2.73834 6.412372,7.15026 9.31506,9.65684 7.192055,6.2106 16.395981,11.40816 25.02236,14.1304 3.073154,0.9698 7.990559,2.2244 8.79193,2.24313 0.28949,0.006 -0.30866,-0.46357 -1.329241,-1.04519 z m 30.804565,0.36311 c 4.33588,-1.05463 7.23403,-2.01107 11.31643,-3.73459 6.48102,-2.7362 11.93772,-6.00082 17.42748,-10.42647 3.27959,-2.64389 8.42407,-7.81161 11.03347,-11.08331 l 1.66309,-2.0852 -1.11163,-1.44563 c -1.93805,-2.52037 -6.6394,-7.39883 -9.45279,-9.80887 -6.64754,-5.69453 -14.12473,-10.13124 -22.05977,-13.08951 -2.97642,-1.10965 -9.30187,-2.98061 -10.07699,-2.98061 -0.12167,0 0.82278,0.75129 2.09878,1.66955 2.62739,1.89075 5.88448,5.28952 7.63243,7.96441 2.31486,3.54245 4.09495,8.10857 4.80918,12.33609 0.42596,2.5212 0.35913,8.0012 -0.13135,10.77061 -1.08233,6.11134 -3.96462,11.79259 -8.19016,16.14352 -2.29862,2.36684 -4.19095,3.87669 -6.66879,5.32089 -1.08558,0.63273 -1.79615,1.15106 -1.57903,1.15184 0.21712,8.4e-4 1.69746,-0.31546 3.28965,-0.70272 z m -3.71741,-5.49311 c 0.25147,-0.82928 0.62764,-1.16514 2.49178,-2.2248 1.37957,-0.7842 2.95531,-2.01061 4.2396,-3.29972 1.12419,-1.12841 2.28153,-2.18811 2.57189,-2.35489 0.72754,-0.41792 1.94571,-3.28769 1.96289,-4.62422 0.0203,-1.57643 -0.82847,-2.47901 -2.33117,-2.47901 -1.02477,0 -1.1384,-0.0674 -1.1384,-0.67486 0,-0.92126 -0.78176,-1.8826 -1.57903,-1.94175 -0.36187,-0.0268 -0.86566,-0.32777 -1.11953,-0.66873 -0.46629,-0.62621 -1.1124,-0.80717 -3.96488,-1.11045 -1.10517,-0.11751 -1.69348,-0.049 -2.11309,0.24611 -0.3935,0.27673 -0.91175,0.35135 -1.60292,0.23076 -0.91923,-0.16037 -1.05083,-0.29115 -1.31555,-1.30738 -0.22814,-0.87588 -0.44007,-1.15142 -0.94467,-1.22828 -0.79229,-0.12069 -1.06967,-0.54573 -0.88144,-1.3507 0.0781,-0.3339 0.0245,-0.68505 -0.11924,-0.78034 -0.14365,-0.0953 -0.61456,0.0444 -1.04646,0.31045 -0.65041,0.40066 -0.90432,0.42551 -1.47844,0.14475 -0.81653,-0.39931 -1.19527,-1.31533 -0.95631,-2.3129 0.22331,-0.93225 1.76514,-1.74801 3.35252,-1.77376 1.00254,-0.0162 1.32842,0.11207 1.80984,0.7128 0.32293,0.40295 0.64408,0.90005 0.71365,1.10467 0.10006,0.29425 0.19807,0.29968 0.46873,0.0259 0.2686,-0.27166 0.27825,-0.56981 0.0449,-1.38607 -0.28887,-1.01023 -0.26763,-1.06912 0.74337,-2.06102 0.57241,-0.5616 1.04074,-1.17719 1.04074,-1.36798 0,-0.39705 0.70278,-1.17172 1.53188,-1.68863 0.3115,-0.19419 1.02718,-0.35307 1.5904,-0.35307 0.56321,0 1.1626,-0.17922 1.33198,-0.39825 0.24428,-0.31594 0.18443,-0.49111 -0.28951,-0.8474 -0.3286,-0.24704 -0.80796,-0.44916 -1.06524,-0.44916 -0.25728,0 -0.46779,-0.12711 -0.46779,-0.28246 0,-0.15693 0.70179,-0.28248 1.57903,-0.28248 0.86848,0 1.57904,-0.11366 1.57904,-0.25259 0,-1.12563 -4.62888,-4.08739 -6.14188,-3.92983 -0.75193,0.0784 -0.82502,0.16879 -0.75786,0.93816 0.0409,0.46833 -0.0947,1.09964 -0.30133,1.40292 -0.36872,0.54122 -0.40259,0.53678 -1.83371,-0.24038 -0.80192,-0.43548 -1.93942,-0.86109 -2.52778,-0.94579 -0.58834,-0.0847 -1.06972,-0.24221 -1.06972,-0.35003 0,-0.26831 1.0644,-1.28768 1.7248,-1.65184 0.33546,-0.18498 0.68492,-0.20001 0.9211,-0.0396 0.55184,0.37473 0.77946,0.32478 0.61509,-0.13495 -0.18898,-0.52857 0.67948,-1.01029 1.82135,-1.01029 0.85043,0 1.67416,0.56306 1.34327,0.91821 -0.17781,0.19085 0.41114,0.386 1.93012,0.63955 0.69522,0.11604 1.11848,0.0782 1.11848,-0.0999 0,-0.15762 0.20725,-0.33206 0.46056,-0.38766 0.29412,-0.0646 -0.11006,-0.39487 -1.11849,-0.91408 -1.3406,-0.69025 -1.99591,-0.83344 -4.33974,-0.94831 -2.53793,-0.12438 -2.73177,-0.0979 -2.40212,0.32844 0.32051,0.41451 0.26435,0.46329 -0.52896,0.45942 -0.48814,-0.002 -1.05097,-0.11544 -1.25075,-0.25125 -0.23439,-0.15933 -0.67281,-0.0509 -1.23604,0.30581 -1.01763,0.64443 -2.61149,0.61377 -2.61149,-0.0503 0,-0.53371 -1.24789,-0.68137 -3.54228,-0.41911 l -1.70007,0.19431 0.88458,0.3992 c 0.48651,0.21956 0.81366,0.47532 0.72698,0.56835 -0.0866,0.093 -0.66712,0.20126 -1.28988,0.24052 -0.62278,0.0393 -1.78366,0.21508 -2.57975,0.39072 -1.24388,0.27442 -1.65103,0.54526 -2.8949,1.92576 l -1.44745,1.60642 2.23696,0.75629 2.23697,0.75627 0.14422,2.22811 c 0.0794,1.22547 0.30371,2.5459 0.49863,2.93429 0.59459,1.18472 1.84974,2.78042 2.69542,3.42676 0.795,0.60759 0.79932,0.60779 0.50819,0.0239 -0.51472,-1.03229 -0.31955,-1.0461 0.64806,-0.0459 0.51791,0.53537 1.09479,1.35475 1.28193,1.82082 0.56116,1.3975 1.4998,2.10896 3.16649,2.40011 0.83881,0.14653 1.716,0.44673 1.9493,0.66713 0.2333,0.2204 0.79279,0.48468 1.2433,0.5873 0.45053,0.10259 1.06606,0.49141 1.36787,0.86397 0.30181,0.37255 1.02664,0.8155 1.61075,0.9843 1.39918,0.4044 1.72214,1.05959 1.0565,2.14337 -1.06823,1.73929 -0.39055,4.18231 1.83767,6.62475 1.25176,1.3721 1.33432,1.54798 1.1737,2.5002 -0.095,0.56335 -0.57135,2.2152 -1.0585,3.67077 -0.85957,2.56835 -1.083,3.96803 -0.69918,4.37999 0.44183,0.47422 1.20859,-0.01 1.49107,-0.94156 z m 16.87239,-23.03293 c -0.16393,-2.01899 -0.62253,-4.30129 -1.35161,-6.72644 -0.38096,-1.26723 -0.43992,-1.32928 -0.868,-0.91347 -0.798,0.77513 -1.11151,2.47265 -0.81799,4.42895 0.14481,0.96506 0.38501,1.8853 0.53378,2.04498 0.14877,0.15968 0.27123,0.80513 0.27212,1.43432 0.002,1.23765 0.48849,2.45568 1.39752,3.49721 l 0.57466,0.65843 0.21003,-1.22335 c 0.11552,-0.67285 0.1378,-2.11314 0.0495,-3.20063 z m -18.41842,0.4237 c -0.0894,-0.15536 -0.28108,-0.28247 -0.42583,-0.28247 -0.14474,0 -0.18998,0.12711 -0.10052,0.28247 0.0894,0.15535 0.28108,0.28247 0.42582,0.28247 0.14474,0 0.18998,-0.12712 0.10053,-0.28247 z m 3.02648,0.019 c 0,-0.34547 -0.97175,-0.671 -1.3178,-0.44145 -0.1484,0.0984 -0.20169,0.2973 -0.1184,0.44193 0.19735,0.34274 1.4362,0.34233 1.4362,-5.7e-4 z m 1.05269,-0.58397 c 0,-0.15536 -0.17764,-0.28248 -0.39476,-0.28248 -0.21712,0 -0.39475,0.12712 -0.39475,0.28248 0,0.15535 0.17763,0.28246 0.39475,0.28246 0.21712,0 0.39476,-0.12711 0.39476,-0.28246 z m -3.15433,-0.41887 c -0.62208,-0.80451 -3.71857,-1.34373 -4.08291,-0.71101 -0.0973,0.16888 0.24048,0.2865 0.83978,0.29248 0.55133,0.005 1.2985,0.19167 1.66036,0.41369 0.36186,0.22203 0.9389,0.4082 1.28228,0.41369 0.5223,0.009 0.57142,-0.0585 0.30049,-0.40885 z m 6.86174,-10.33612 c -0.66718,-0.59619 -1.3565,-0.62914 -1.529,-0.0731 -0.10942,0.35279 0.44356,0.57937 1.50601,0.61711 l 0.65792,0.0234 -0.63493,-0.56739 z m 2.56213,-3.14885 c 0.17702,-0.18999 0.76324,-0.30672 1.30271,-0.25939 l 0.98086,0.0861 -1.0527,-1.18045 c -1.94744,-2.1838 -6.04151,-4.81682 -7.42587,-4.77579 -0.96637,0.0286 -2.76976,0.62119 -2.80779,0.92257 -0.042,0.33281 1.87457,1.05372 3.07469,1.15653 0.99354,0.0851 2.29028,1.05472 2.29028,1.7125 0,0.43862 1.06129,1.48094 2.14304,2.10474 1.12063,0.64622 1.11136,0.64478 1.49478,0.23324 z m -18.18487,-4.36364 c 0.0653,-0.21048 -0.0944,-0.27557 -0.43875,-0.17891 -0.29775,0.0836 -0.54137,0.27355 -0.54137,0.42218 0,0.375 0.8541,0.163 0.98012,-0.24327 z m -3.0855,-0.37531 c 0.33737,-0.23401 0.3278,-0.27445 -0.0657,-0.27815 -0.25331,-0.002 -0.46055,-0.13143 -0.46055,-0.28679 0,-0.15535 -0.11843,-0.28246 -0.26317,-0.28246 -0.14475,0 -0.26318,0.18336 -0.26318,0.40746 0,0.27409 -0.36609,0.44284 -1.11849,0.51558 -1.01109,0.0978 -0.9795,0.11245 0.32897,0.15314 0.7961,0.0248 1.6251,-0.0781 1.84221,-0.22878 z m 2.74027,-0.17084 c 0.70571,-0.29065 0.23565,-0.57328 -0.74838,-0.44998 -0.51424,0.0645 -0.86972,0.23049 -0.78997,0.36899 0.1669,0.28984 0.93332,0.33019 1.53835,0.081 z m 1.47049,-0.67656 c -0.21712,-0.15061 -0.51319,-0.27382 -0.65793,-0.27382 -0.14475,0 -0.0855,0.12321 0.13158,0.27382 0.21713,0.15059 0.51319,0.27382 0.65793,0.27382 0.14475,0 0.0856,-0.12323 -0.13158,-0.27382 z m 6.02243,0.0114 c 0.52341,-0.14905 1.42535,-0.3586 2.00433,-0.46564 l 1.05269,-0.19463 -1.05269,-0.26017 c -0.57898,-0.14309 -1.57173,-0.20148 -2.20611,-0.12976 -0.63437,0.0717 -1.50098,0.0234 -1.92577,-0.10732 -0.4501,-0.13855 -1.0514,-0.12389 -1.44113,0.0351 -0.53485,0.21826 -0.60753,0.35208 -0.363,0.66832 0.24096,0.31162 0.20519,0.42341 -0.16877,0.52749 -0.26099,0.0726 0.34072,0.14682 1.33715,0.16484 0.99642,0.018 2.23991,-0.0892 2.7633,-0.23827 z m -7.92736,-0.48798 c -0.25162,-0.0707 -0.72533,-0.0732 -1.05269,-0.005 -0.32736,0.0676 -0.12149,0.12541 0.45748,0.12855 0.57898,0.003 0.84682,-0.0521 0.59521,-0.12285 z m 3.2208,-0.0884 c -0.52195,-0.36203 -1.65592,-0.36203 -1.44745,0 0.0894,0.15536 0.54055,0.28052 1.00242,0.27814 0.63901,-0.003 0.7454,-0.0698 0.44503,-0.27814 z m 0.78951,-1.14838 c 0.94084,-0.1632 1.82905,-0.43255 1.97379,-0.59858 0.3698,-0.42415 -4.41652,-0.0615 -5.93519,0.44971 l -1.17046,0.394 1.71061,0.0258 c 0.94085,0.0142 2.48041,-0.10773 3.42125,-0.27092 z"
         id="path851"
         sodipodi:nodetypes="ssssssssssscsscsssssssssssssssssssssssssssssssssssscssscssssscsssssssssssscsssssssssssssscssssssssssssssssssssssssssssssssssscscsscsssssccccsssssssssssssssccssssscscsssssssscssccssssssscscssssccssscsssssssssssccsssssccsssssssssssscsscsssssscccccsscsssscsss" />
      <ellipse
         style="fill:#2651a8;fill-opacity:0.343358;stroke-width:0.175187;stroke-linejoin:round"
         id="path963"
         cx="95.421791"
         cy="206.61388"
         rx="30.079086"
         ry="30.868042" />
    </g>
  </g>
</svg>
